<?xml version="1.0" standalone="no"?>
        <!DOCTYPE svg PUBLIC "-//W3C//DTD SVG 1.1//EN" 
        "http://www.w3.org/Graphics/SVG/1.1/DTD/svg11.dtd"> <svg style="height: 167px; width: 167px; color: rgb(199, 56, 78);" xmlns="http://www.w3.org/2000/svg" xmlns:xlink="http://www.w3.org/1999/xlink" width="40" zoomAndPan="magnify" viewBox="0 0 30 30.000001" height="40" preserveAspectRatio="xMidYMid meet" version="1.0"><defs><clipPath id="id1"><path d="M 3.386719 3.410156 L 26.613281 3.410156 L 26.613281 25.910156 L 3.386719 25.910156 Z M 3.386719 3.410156 " clip-rule="nonzero" fill="#c7384e"></path></clipPath></defs><g clip-path="url(#id1)"><path fill="#c7384e" d="M 26.101562 3.410156 L 21.5625 3.410156 C 21.359375 3.410156 21.15625 3.511719 21.105469 3.71875 L 15 18.699219 L 8.894531 3.71875 C 8.84375 3.511719 8.640625 3.410156 8.4375 3.410156 L 3.898438 3.410156 C 3.59375 3.410156 3.394531 3.617188 3.394531 3.921875 L 3.394531 25.398438 C 3.394531 25.707031 3.59375 25.910156 3.898438 25.910156 L 7.429688 25.910156 C 7.734375 25.910156 7.933594 25.707031 7.933594 25.398438 L 7.933594 11.59375 L 8.289062 11.59375 L 13.386719 24.070312 C 13.484375 24.273438 13.636719 24.378906 13.839844 24.378906 L 16.210938 24.378906 C 16.414062 24.378906 16.613281 24.273438 16.664062 24.070312 L 21.710938 11.59375 L 22.066406 11.59375 L 22.066406 25.398438 C 22.066406 25.707031 22.265625 25.910156 22.570312 25.910156 L 26.101562 25.910156 C 26.40625 25.910156 26.605469 25.707031 26.605469 25.398438 L 26.605469 3.921875 C 26.605469 3.617188 26.40625 3.410156 26.101562 3.410156 Z M 26.101562 3.410156 " fill-opacity="1" fill-rule="nonzero"></path></g></svg> 